#!OML:ASF H:\MichaelJackson\Top Level 1\Subject 1\Session 1\male.ASF
:FULLY-SPECIFIED
:DEGREES
65
root 6.05437 16.4715 -15.0592 19.1281 3.88515 -0.989689
lowerback 5.24367 1.08493 1.30211
upperback -0.502939 1.51626 -0.369335
thorax -3.41472 0.726183 -1.23357
lowerneck -7.00419 -2.76042 0.567472
upperneck -14.0416 -3.34565 3.81727
head -3.26311 -1.80126 1.16932
rclavicle 3.80486e-015 -6.29278e-015
rhumerus -39.2789 5.91556 -97.2001
rradius 43.5679
rwrist 6.86521
rhand -32.0999 -23.8168
rfingers 7.12502
rthumb -5.34519 -53.7294
lclavicle 3.80486e-015 -6.29278e-015
lhumerus -39.6996 -17.4082 98.2625
lradius 47.8204
lwrist 17.3625
lhand -12.3361 5.34901
lfingers 7.12502
lthumb 13.7331 34.8758
rfemur -40.9407 4.58505 21.8311
rtibia 46.9777
rfoot -25.7635 -10.3818
rtoes 27.6007
lfemur -41.2155 -4.94754 -20.0536
ltibia 46.8185
lfoot -26.1545 4.56181
ltoes 18.5654
66
root 6.05105 16.4447 -15.0916 19.7292 3.86202 -0.885175
lowerback 5.90456 1.09565 1.26231
upperback -0.488773 1.5335 -0.432022
thorax -3.77087 0.731364 -1.29293
lowerneck -7.29271 -2.7541 0.555384
upperneck -14.6743 -3.31534 3.87957
head -3.43432 -1.79241 1.19999
rclavicle -1.81018e-014 -5.04416e-015
rhumerus -39.1444 6.40382 -97.3596
rradius 44.0589
rwrist 6.72409
rhand -32.1374 -24.1875
rfingers 7.12502
rthumb -5.38137 -54.0992
lclavicle -1.81018e-014 -5.04416e-015
lhumerus -39.6954 -17.9899 98.2991
lradius 48.5447
lwrist 17.7005
lhand -12.4655 5.3367
lfingers 7.12502
lthumb 13.6084 34.8719
rfemur -42.0876 4.74612 21.6204
rtibia 47.6373
rfoot -25.9203 -10.2984
rtoes 27.0221
lfemur -42.2833 -5.19955 -20.0228
ltibia 47.3637
lfoot -26.2235 4.81424
ltoes 18.4079
67
root 6.04727 16.4149 -15.1247 20.381 3.86507 -0.770205
lowerback 6.55371 1.09524 1.23134
upperback -0.490489 1.53519 -0.501833
thorax -4.13715 0.728278 -1.3637
lowerneck -7.63921 -2.74573 0.523011
upperneck -15.2395 -3.28218 3.95486
head -3.57277 -1.78012 1.23615
rclavicle 8.75274e-015 -7.04443e-015
rhumerus -39.0116 6.89807 -97.5251
rradius 44.5636
rwrist 6.57522
rhand -32.3931 -24.4522
rfingers 7.12502
rthumb -5.62824 -54.3574
lclavicle 8.75274e-015 -7.04443e-015
lhumerus -39.6975 -18.5963 98.3222
lradius 49.2653
lwrist 18.0695
lhand -12.6103 5.3182
lfingers 7.12502
lthumb 13.4688 34.8627
rfemur -43.3149 4.90767 21.3847
rtibia 48.3202
rfoot -26.051 -10.1063
rtoes 26.3457
lfemur -43.4418 -5.43591 -19.9894
ltibia 47.954
lfoot -26.2835 5.00276
ltoes 18.2708
68
root 6.04323 16.3822 -15.1579 21.0672 3.89589 -0.656093
lowerback 7.18309 1.0848 1.21294
upperback -0.493882 1.52364 -0.565907
thorax -4.49456 0.718352 -1.43411
lowerneck -8.02743 -2.735 0.467448
upperneck -15.758 -3.24585 4.03104
head -3.68832 -1.76396 1.27508
rclavicle 2.00027e-015 -1.49585e-014
rhumerus -38.8712 7.41002 -97.6776
rradius 45.0854
rwrist 6.41606
rhand -32.7663 -24.6463
rfingers 7.12502
rthumb -5.98858 -54.5417
lclavicle 2.00027e-015 -1.49585e-014
lhumerus -39.6958 -19.224 98.3395
lradius 49.9913
lwrist 18.4624
lhand -12.7699 5.31495
lfingers 7.12502
lthumb 13.315 34.8696
rfemur -44.6007 5.06746 21.1403
rtibia 49.0154
rfoot -26.1193 -9.78975
rtoes 25.6865
lfemur -44.6712 -5.64744 -19.949
ltibia 48.5882
lfoot -26.334 5.13987
ltoes 18.1219
69
root 6.03932 16.3468 -15.1907 21.7735 3.94774 -0.555239
lowerback 7.79396 1.0652 1.22424
upperback -0.493462 1.50208 -0.6229
thorax -4.83764 0.702833 -1.51234
lowerneck -8.44478 -2.72307 0.393153
upperneck -16.2349 -3.20824 4.10273
head -3.78494 -1.74501 1.31457
rclavicle -6.1002e-015 0
rhumerus -38.7254 7.94915 -97.8191
rradius 45.6312
rwrist 6.2431
rhand -33.2709 -24.7703
rfingers 7.12502
rthumb -6.47578 -54.6513
lclavicle -6.1002e-015 0
lhumerus -39.6851 -19.8793 98.3477
lradius 50.7148
lwrist 18.8857
lhand -12.9274 5.3246
lfingers 7.12502
lthumb 13.1631 34.8891
rfemur -45.9233 5.2292 20.9016
rtibia 49.7136
rfoot -26.1138 -9.35317
rtoes 25.2169
lfemur -45.9533 -5.83386 -19.8931
ltibia 49.2603
lfoot -26.3737 5.24571
ltoes 17.961
70
root 6.03554 16.3092 -15.2228 22.4755 4.01792 -0.481197
lowerback 8.40253 1.03742 1.27729
upperback -0.481591 1.474 -0.670021
thorax -5.16719 0.683095 -1.60271
lowerneck -8.87682 -2.71047 0.310448
upperneck -16.6911 -3.17075 4.16041
head -3.87283 -1.72455 1.35042
rclavicle -3.21161e-014 1.38652e-014
rhumerus -38.5691 8.51734 -97.9496
rradius 46.1993
rwrist 6.0566
rhand -33.8679 -24.8373
rfingers 7.12502
rthumb -7.05205 -54.6998
lclavicle -3.21161e-014 1.38652e-014
lhumerus -39.6626 -20.5622 98.3423
lradius 51.4391
lwrist 19.3292
lhand -13.0688 5.31926
lfingers 7.12502
lthumb 13.0269 34.8925
rfemur -47.2483 5.39574 20.6886
rtibia 50.411
rfoot -26.0491 -8.87744
rtoes 24.9581
lfemur -47.2517 -5.98824 -19.815
ltibia 49.9626
lfoot -26.417 5.33376
ltoes 17.7775
71
root 6.03201 16.2695 -15.2538 23.1614 4.10269 -0.435167
lowerback 8.9934 1.00538 1.35757
upperback -0.443947 1.44439 -0.697027
thorax -5.45989 0.662399 -1.68622
lowerneck -9.28658 -2.69747 0.222027
upperneck -17.1724 -3.13324 4.19467
head -3.97555 -1.70318 1.38085
rclavicle 2.48481e-015 -4.57205e-015
rhumerus -38.3902 9.13173 -98.0551
rradius 46.7915
rwrist 5.82677
rhand -34.6436 -24.7912
rfingers 7.12502
rthumb -7.80084 -54.6273
lclavicle 2.48481e-015 -4.57205e-015
lhumerus -39.6026 -21.2705 98.3342
lradius 52.1549
lwrist 19.7737
lhand -13.1961 5.33434
lfingers 7.12502
lthumb 12.9041 34.9154
rfemur -48.5563 5.56617 20.5055
rtibia 51.1105
rfoot -25.9494 -8.44887
rtoes 24.8789
lfemur -48.5467 -6.11858 -19.7142
ltibia 50.687
lfoot -26.472 5.40818
ltoes 17.6069
72
root 6.02869 16.2282 -15.2835 23.8245 4.19556 -0.416768
lowerback 9.57708 0.971842 1.47536
upperback -0.387657 1.41811 -0.718084
thorax -5.72817 0.642458 -1.78441
lowerneck -9.64395 -2.68559 0.146925
upperneck -17.7018 -3.09767 4.20914
head -4.10747 -1.68359 1.40492
rclavicle -1.06101e-014 4.82053e-015
rhumerus -38.1972 9.75843 -98.1454
rradius 47.4085
rwrist 5.61402
rhand -35.2242 -24.839
rfingers 7.12502
rthumb -8.36112 -54.6535
lclavicle -1.06101e-014 4.82053e-015
lhumerus -39.5167 -22.0134 98.3137
lradius 52.8563
lwrist 20.1975
lhand -13.2997 5.38393
lfingers 7.12502
lthumb 12.8043 34.9712
rfemur -49.8374 5.73421 20.3562
rtibia 51.8239
rfoot -25.8501 -8.13983
rtoes 24.9098
lfemur -49.8214 -6.23123 -19.5917
ltibia 51.4313
lfoot -26.5528 5.49124
ltoes 17.4276
73
root 6.02543 16.1854 -15.3112 24.4513 4.28412 -0.422338
lowerback 10.1471 0.942861 1.59976
upperback -0.301511 1.4007 -0.722623
thorax -5.95709 0.627342 -1.86936
lowerneck -9.9376 -2.6752 0.080297
upperneck -18.2994 -3.06478 4.19838
head -4.27871 -1.66595 1.42233
rclavicle -1.81391e-014 8.44835e-015
rhumerus -37.9783 10.4162 -98.2099
rradius 48.0442
rwrist 5.37184
rhand -35.8879 -24.8477
rfingers 7.12502
rthumb -9.00168 -54.6356
lclavicle -1.81391e-014 8.44835e-015
lhumerus -39.3844 -22.7746 98.2932
lradius 53.5289
lwrist 20.5821
lhand -13.3789 5.42819
lfingers 7.12502
lthumb 12.7279 35.0203
rfemur -51.0756 5.89816 20.2399
rtibia 52.5659
rfoot -25.7859 -7.99501
rtoes 24.964
lfemur -51.0582 -6.32592 -19.4518
ltibia 52.1957
lfoot -26.6705 5.57764
ltoes 17.2685
74
root 6.02177 16.14 -15.3375 25.072 4.38768 -0.431186
lowerback 10.696 0.909125 1.72805
upperback -0.206606 1.37877 -0.724169
thorax -6.16481 0.610076 -1.95191
lowerneck -10.1607 -2.66598 0.0368756
upperneck -18.9559 -3.03532 4.16748
head -4.48811 -1.65162 1.43208
rclavicle 1.08338e-014 -4.96962e-015
rhumerus -37.7455 11.0897 -98.2673
rradius 48.6942
rwrist 5.08893
rhand -36.336 -24.9622
rfingers 7.12502
rthumb -9.43405 -54.731
lclavicle 1.08338e-014 -4.96962e-015
lhumerus -39.215 -23.5494 98.2632
lradius 54.1613
lwrist 20.9107
lhand -13.4439 5.48398
lfingers 7.12502
lthumb 12.6652 35.08
rfemur -52.3137 6.02793 20.1433
rtibia 53.3564
rfoot -25.7838 -8.02162
rtoes 24.9456
lfemur -52.2974 -6.42838 -19.3011
ltibia 52.9872
lfoot -26.8215 5.66239
ltoes 17.1181
